# xmcd
#
# Track frame offsets:
# 180
# 22823
# 43325
# 58786
# 82795
# 117237
# 140207
# 164887
# 183442
# 204023
# 229095
# 256332
#
# Disc length: 3598 seconds
#
#
# Revision: 0
# Processed by: cddbd v1.5PL3 Copyright (c) Steve Scherf et al.
# Submitted via: FreeRIP 2.60 
#
DISCID=a30e0c0c
DTITLE=R&B Connection - Brick Bar Blues
DYEAR=1900
DGENRE=R&B
TTITLE0=Brick Bar Blues
TTITLE1=Can't Stop Thinking About You
TTITLE2=Don't Turn Your Back
TTITLE3=Inner City Blues
TTITLE4=Ramblin' On My Mind
TTITLE5=Maybe I Dream Too Much
TTITLE6=Trouble In Mind
TTITLE7=Long Train Runnin'
TTITLE8=Love Will Pass Your Way Again
TTITLE9=Mean Woman Blues
TTITLE10=Be Thankful For What You Got
TTITLE11=Hots For You
EXTD=
EXTT0=
EXTT1=
EXTT2=
EXTT3=
EXTT4=
EXTT5=
EXTT6=
EXTT7=
EXTT8=
EXTT9=
EXTT10=
EXTT11=
PLAYORDER=
